<svg xmlns="http://www.w3.org/2000/svg" width="120" height="120" viewBox="0 0 120 120"><rect width="100%" height="100%" fill="#DDDDDD"/><path fill="#999999" d="M32.825 52.32h2.01v12.29h-1.17q-.27 0-.46-.09-.18-.09-.35-.3l-6.42-8.2q.06.57.06 1.04v7.55h-2.02V52.32h1.2q.14 0 .25.01t.19.05.15.11q.08.08.17.19l6.45 8.23q-.03-.3-.05-.58-.01-.29-.01-.54zm8.28 3.43q.97 0 1.76.32.8.31 1.36.89.57.58.87 1.41.31.83.31 1.86 0 1.04-.31 1.87-.3.84-.87 1.42-.56.59-1.36.9-.79.32-1.76.32-.98 0-1.78-.32-.8-.31-1.36-.9-.57-.58-.88-1.42-.31-.83-.31-1.87 0-1.03.31-1.86t.88-1.41q.56-.58 1.36-.89.8-.32 1.78-.32m0 7.37q1.08 0 1.61-.73.52-.73.52-2.14t-.52-2.15q-.53-.74-1.61-.74-1.11 0-1.64.74-.53.75-.53 2.15t.53 2.14q.53.73 1.64.73m12.66-10.8v12.29h-2.29V52.32zm4.52 12.29h-2.1v-8.72h1.28q.41 0 .53.38l.14.65q.23-.26.48-.47t.54-.37q.28-.15.61-.24t.72-.09q.82 0 1.35.45t.8 1.18q.2-.43.51-.74.3-.31.67-.5.36-.2.78-.29.41-.1.83-.1.72 0 1.28.22t.94.65q.38.42.58 1.04.2.61.2 1.4v5.55h-2.1v-5.55q0-.83-.36-1.25-.37-.43-1.07-.43-.32 0-.6.12-.28.11-.49.31-.2.21-.32.53-.12.31-.12.72v5.55h-2.11v-5.55q0-.88-.35-1.28-.36-.4-1.04-.4-.45 0-.85.23-.39.23-.73.62zm16.74-2.25v-1.47q-.91.04-1.53.15-.62.12-.99.3-.38.18-.54.41-.16.24-.16.52 0 .55.33.79.32.24.85.24.65 0 1.12-.23.47-.24.92-.71m-4.44-4.58-.37-.68q1.5-1.37 3.62-1.37.77 0 1.37.25t1.02.7q.42.44.63 1.06.22.62.22 1.36v5.51h-.95q-.3 0-.46-.09t-.26-.36l-.18-.63q-.34.3-.65.52-.31.23-.65.38t-.73.24q-.39.08-.86.08-.55 0-1.02-.15-.46-.15-.8-.45t-.53-.74-.19-1.03q0-.33.11-.66.11-.32.36-.62.26-.3.65-.56.4-.26.99-.46.58-.2 1.35-.32.78-.12 1.77-.15v-.51q0-.87-.37-1.29-.38-.43-1.08-.43-.51 0-.85.12-.33.12-.59.27-.25.15-.46.27t-.47.12q-.22 0-.37-.12-.15-.11-.25-.26m11.65 2.26q.39 0 .68-.11t.48-.29q.19-.19.29-.45.1-.27.1-.58 0-.65-.39-1.03-.39-.37-1.16-.37-.78 0-1.16.37-.39.38-.39 1.03 0 .3.1.57.1.26.29.45t.48.3q.3.11.68.11m2.37 4.96q0-.25-.15-.42-.16-.16-.42-.25t-.62-.13q-.35-.04-.74-.06l-.82-.04q-.42-.02-.82-.07-.35.2-.57.46-.21.26-.21.61 0 .23.11.43.12.2.37.35.25.14.65.22t.98.08 1.01-.09q.42-.09.7-.24.27-.16.4-.38.13-.21.13-.47m-.42-8.81h2.51v.78q0 .37-.45.46l-.78.14q.18.45.18.99 0 .64-.26 1.17-.26.52-.72.88-.46.37-1.08.57-.63.2-1.35.2-.26 0-.49-.03-.24-.02-.47-.06-.41.24-.41.55 0 .26.24.39.24.12.64.17t.91.06q.51.02 1.05.06.53.04 1.04.15.51.1.91.33t.65.63q.24.39.24 1.01 0 .58-.29 1.13-.28.54-.82.97-.54.42-1.33.68-.78.26-1.79.26-.98 0-1.71-.19t-1.22-.51q-.48-.32-.72-.74-.24-.41-.24-.86 0-.62.37-1.03t1.02-.66q-.35-.18-.56-.47-.2-.3-.2-.79 0-.19.07-.4t.21-.41q.14-.21.36-.39.21-.18.5-.33-.66-.35-1.04-.95-.38-.59-.38-1.39 0-.65.26-1.17t.72-.89 1.1-.57q.63-.19 1.38-.19.56 0 1.05.11.5.12.9.34m5.49 3.06h3.97q0-.41-.12-.77-.11-.36-.34-.64-.23-.27-.59-.43-.35-.15-.82-.15-.91 0-1.43.52-.52.51-.67 1.47m5.36 1.26h-5.4q.05.67.24 1.16t.49.81q.31.32.73.48.42.15.93.15t.88-.12q.37-.11.65-.26.27-.14.48-.26t.4-.12q.27 0 .4.19l.6.77q-.35.41-.78.68-.44.28-.91.45-.47.16-.96.23t-.95.07q-.91 0-1.69-.3-.78-.31-1.36-.9t-.91-1.46-.33-2.02q0-.89.29-1.68.29-.78.83-1.36.54-.59 1.32-.93.77-.34 1.75-.34.83 0 1.52.27.7.26 1.2.77.5.5.79 1.24.28.73.28 1.68 0 .47-.1.64-.1.16-.39.16"/></svg>